<svg viewBox="0 0 277 58" version="1.1" xmlns="http://www.w3.org/2000/svg" xmlns:xlink="http://www.w3.org/1999/xlink">
    <g id="Symbols" stroke="none" stroke-width="1" fill="none" fill-rule="evenodd">
        <g id="HS/Header/Desktop" transform="translate(-112.000000, -81.000000)" fill="#003F61">
            <g id="Header">
                <g id="HS/Logo/Blue" transform="translate(112.000000, 80.000000)">
                    <g id="hso--blue">
                        <path d="M31.398193,1.11891892 L22.0239298,2.77297297 L25.1503041,4.09783784 L25.1503041,14.4648649 C28.3025965,16.1886486 30.747,19.4221622 30.747,26.6043243 C30.747,33.792973 27.0471871,38.2410811 25.1503041,39.6097297 L25.1503041,48.8367568 L34.652538,45.6664865 L34.652538,2.31567568 L31.3998129,1.11891892 L31.398193,1.11891892 Z M15.1264678,14.5945946 L15.1264678,3.95189189 L12.0746082,2.67405405 L0.675491228,4.61027027 L3.53944444,5.99189189 L3.53944444,58.6378378 L15.1264678,54.6194595 L15.1264678,43.5567568 C11.9029006,41.9481081 8.35535673,37.9410811 8.35535673,29.9464865 C8.35535673,21.9454054 12.2754737,16.6978378 15.1264678,14.5962162 L15.1264678,14.5945946 Z M57.006924,13.3654054 L50.9890585,13.3654054 L50.9890585,6.98918919 L47.5711053,6.98918919 L47.5711053,22.9459459 L50.9890585,22.9459459 L50.9890585,15.9486486 L57.0506608,15.9486486 L57.0506608,22.9459459 L60.468614,22.9459459 L60.468614,6.98918919 L57.0036842,6.98918919 L57.006924,13.3654054 Z M68.5404912,11.5345946 C64.153848,11.5345946 62.7866667,14.7778378 62.7866667,17.4697297 C62.7866667,21.3778378 65.3007251,23.34 68.4724561,23.34 C72.5092047,23.34 74.3169942,20.5183784 74.3169942,17.3805405 C74.3169942,14.2702703 72.574,11.5345946 68.5404912,11.5345946 L68.5404912,11.5345946 Z M68.5842281,21.0697297 C66.9724444,21.0697297 66.1349649,19.9864865 66.1349649,17.4924324 C66.1349649,16.4789189 66.1576433,13.7189189 68.5388713,13.7189189 C70.6981754,13.7189189 70.9848947,15.7735135 70.9848947,17.2540541 C70.9848947,20.2086486 70.0162047,21.0697297 68.5826082,21.0697297 L68.5842281,21.0697297 Z M81.1026842,21.0486486 C80.7672082,21.0606556 80.4437477,20.9228145 80.219848,20.6724324 C79.471462,19.8535135 79.4050468,17.867027 79.4050468,17.2508108 C79.4050468,16.0345946 79.5783743,13.6994595 81.1221228,13.6994595 C82.3807719,13.6994595 82.5119825,15.3535135 82.5573392,15.7540541 L85.7533684,15.7540541 C85.7290702,12.7297297 83.2830468,11.5832432 81.2095965,11.5832432 C79.7322632,11.5832432 76.0065322,12.2886486 76.0065322,17.3610811 C76.0065322,19.1513514 76.4471404,20.6302703 77.4190702,21.7556757 C78.4314971,22.9021622 79.7355029,23.2345946 81.2095965,23.2345946 C82.5978363,23.2345946 83.5908246,22.8778378 84.3845673,22.1967568 C85.6642749,21.1151351 85.772807,19.7643243 85.8181637,18.9081081 L82.5994561,18.9081081 C82.4650058,20.892973 81.4493392,21.0486486 81.0994444,21.0486486 L81.1026842,21.0486486 Z M94.3419883,11.6464865 C92.3122749,11.6464865 91.4974737,12.7945946 91.1216608,13.3216216 L91.1216608,7.01027027 L87.8818947,7.01027027 L87.8818947,22.9459459 L91.1653977,22.9459459 L91.1427193,16.1237838 C91.1427193,14.3837838 92.3090351,13.8535135 93.2356082,13.8535135 C95.066076,13.8535135 95.066076,15.6405405 95.066076,16.2794595 L95.066076,22.9443243 L98.3058421,22.9443243 L98.3058421,16.1675676 C98.3058421,14.7145946 97.975386,13.6978378 97.5768947,13.1448649 C97.0520526,12.4637838 95.9894094,11.6464865 94.3371287,11.6464865 L94.3419883,11.6464865 Z M107.122865,16.3232432 L105.114211,15.7718919 C104.14714,15.5043243 103.59476,15.3502703 103.59476,14.6043243 C103.59476,13.9167568 104.258912,13.4967568 105.138509,13.4967568 C105.645532,13.4967568 106.63852,13.5843243 106.725994,14.8216216 L109.703339,14.8216216 C109.614246,12.5918919 107.762719,11.532973 105.468965,11.532973 C102.580713,11.532973 100.596357,12.8578378 100.596357,15.0194595 C100.596357,17.2945946 102.514298,17.8443243 103.419813,18.1086486 L105.444667,18.66 C106.724374,19.0135135 106.990035,19.4124324 106.990035,19.9183784 C106.990035,20.58 106.439275,21.24 105.268099,21.24 C103.900918,21.24 103.46031,20.4243243 103.416573,19.7189189 L100.351754,19.7189189 C100.372813,20.2475676 100.439228,21.132973 101.166556,21.9032432 C102.180602,22.9637838 103.547784,23.2735135 104.97976,23.2735135 C108.43983,23.2735135 110.093731,21.3551351 110.093731,19.4351351 C110.093731,17.9140541 109.146099,16.872973 107.118006,16.3216216 L107.122865,16.3232432 Z M116.595942,21.0486486 C116.26094,21.0606234 115.937988,20.9227461 115.714725,20.6724324 C114.966339,19.8535135 114.899924,17.867027 114.899924,17.2508108 C114.899924,16.0345946 115.078111,13.6994595 116.62024,13.6994595 C117.875649,13.6994595 118.00848,15.3535135 118.052216,15.7540541 L121.248246,15.7540541 C121.223947,12.7297297 118.779544,11.5832432 116.704474,11.5832432 C115.23038,11.5832432 111.504649,12.2886486 111.504649,17.3610811 C111.504649,19.1513514 111.942018,20.6302703 112.913947,21.7556757 C113.927994,22.9021622 115.23038,23.2345946 116.704474,23.2345946 C118.094333,23.2345946 119.085702,22.8778378 119.879444,22.1967568 C121.159152,21.1151351 121.269304,19.7643243 121.313041,18.9081081 L118.094333,18.9081081 C117.961503,20.892973 116.947456,21.0486486 116.595942,21.0486486 L116.595942,21.0486486 Z M129.833626,11.6464865 C127.803912,11.6464865 126.989111,12.7945946 126.613298,13.3216216 L126.613298,7.01027027 L123.373532,7.01027027 L123.373532,22.9459459 L126.657035,22.9459459 L126.632737,16.1237838 C126.632737,14.3837838 127.799053,13.8535135 128.727246,13.8535135 C130.557713,13.8535135 130.557713,15.6405405 130.557713,16.2794595 L130.557713,22.9443243 L133.79748,22.9443243 L133.79748,16.1675676 C133.79748,14.7145946 133.465404,13.6978378 133.068532,13.1448649 C132.54207,12.4637838 131.484287,11.6464865 129.828766,11.6464865 L129.833626,11.6464865 Z M146.94769,19.1513514 L146.94769,11.7989189 L143.597772,11.7989189 L143.597772,17.4259459 C143.597772,19.3232432 143.597772,20.8913514 141.503263,20.8913514 C139.761889,20.8913514 139.761889,19.4156757 139.761889,18.4427027 L139.761889,11.8005405 L136.452468,11.8005405 L136.452468,18.7297297 C136.452468,19.2810811 136.452468,20.8248649 137.181415,21.7297297 C137.796971,22.5486486 139.032942,23.232973 140.531333,23.232973 C142.646901,23.232973 143.48438,21.9518919 143.816456,21.4654054 L143.926608,22.9459459 L147.101579,22.9459459 C147.061143,22.6737553 147.031961,22.4000084 147.014105,22.1254054 C147.014105,21.8416216 146.991427,21.5578378 146.94931,19.1497297 L146.94769,19.1513514 Z M149.842421,6.98918919 L153.106485,6.98918919 L153.106485,22.9459459 L149.842421,22.9459459 L149.842421,6.98918919 Z M160.805789,11.4243243 C159.594117,11.4243243 158.537953,11.7762162 157.676175,12.3518919 C155.803591,13.6524324 155.359743,15.8140541 155.359743,17.627027 C155.359743,19.4156757 155.780912,20.9140541 156.794959,21.972973 C157.961275,23.1891892 159.770684,23.3627027 160.719936,23.3627027 C162.351158,23.3627027 163.807433,22.9248649 164.623854,22.0605405 C165.526129,21.1135135 165.636281,20.1632432 165.681637,19.6313514 L162.705912,19.6313514 C162.398135,20.8702703 161.581713,21.1816216 160.765292,21.1816216 C158.497456,21.1816216 158.497456,18.9275676 158.497456,18.1978378 L165.969977,18.1978378 C166.013713,17.2735135 166.05745,15.6389189 165.305825,14.1162162 C164.288538,12.0405405 162.393275,11.4243243 160.805789,11.4243243 L160.805789,11.4243243 Z M158.602749,16.1513514 C158.667544,14.8459459 159.263661,13.6540541 160.692398,13.6540541 C162.590901,13.6540541 162.636257,15.6405405 162.636257,16.1513514 L158.602749,16.1513514 L158.602749,16.1513514 Z M181.130462,6.65513514 C175.399316,6.65513514 173.479754,10.9605405 173.479754,15.1962162 C173.479754,16.6556757 173.700058,19.3054054 175.443053,21.1605405 C176.896088,22.6816216 178.990596,23.3448649 181.086725,23.3448649 C182.40855,23.3448649 184.987404,23.0578378 186.751456,21.0745946 C188.052222,19.6151351 188.760111,17.1437838 188.760111,14.8264865 C188.760111,13.2583784 188.426415,10.7643243 186.730398,8.82324324 C185.165591,7.05567568 182.82648,6.65675676 181.130462,6.65675676 L181.130462,6.65513514 Z M184.106187,19.3491892 C183.466333,20.3416216 182.518702,20.8248649 181.130462,20.8248649 C179.542977,20.8248649 178.728175,20.2086486 178.242211,19.5437838 C177.294579,18.3113514 177.051596,16.6118919 177.051596,15.0891892 C177.051596,13.2778378 177.315637,11.5572973 178.217912,10.4545946 C178.859386,9.63567568 179.873433,9.10864865 181.149901,9.10864865 C182.781123,9.10864865 184.127246,9.96810811 184.788158,11.9351351 C185.121854,12.9048649 185.186649,14.0108108 185.186649,14.7810811 C185.186649,17.3172973 184.635889,18.552973 184.104567,19.3491892 L184.106187,19.3491892 Z M198.808246,10.2778378 L198.808246,11.8021622 L195.14731,11.8021622 L195.14731,10.4967568 C195.14731,9.92432432 195.14731,9.04378378 196.827129,9.04378378 C197.09117,9.04378378 197.180263,9.06324324 197.50748,9.10864865 L197.50748,6.83675676 C196.584146,6.72648649 195.968591,6.72648649 195.746667,6.72648649 C192.571696,6.72648649 191.907544,8.31567568 191.907544,10.2778378 L191.907544,11.8021622 L190.255263,11.8021622 L190.255263,14.1210811 L191.907544,14.1210811 L191.907544,22.9475676 L195.14731,22.9475676 L195.14731,14.1178378 L198.811485,14.1178378 L198.811485,22.9459459 L202.051251,22.9459459 L202.051251,14.1178378 L204.124702,14.1178378 L204.124702,11.7989189 L202.051251,11.7989189 L202.051251,10.4967568 C202.051251,9.92432432 202.051251,9.04378378 203.726211,9.04378378 C203.990251,9.04378378 204.077725,9.06324324 204.406561,9.10864865 L204.406561,6.83675676 C203.483228,6.72648649 202.864433,6.72648649 202.645749,6.72648649 C199.470778,6.72648649 198.806626,8.31243243 198.806626,10.2778378 L198.808246,10.2778378 Z M210.427667,11.4243243 C209.212754,11.4243243 208.156591,11.7762162 207.296433,12.3518919 C205.422228,13.6524324 204.98,15.8140541 204.98,17.627027 C204.98,19.4156757 205.40117,20.9140541 206.413596,21.972973 C207.583152,23.1891892 209.390942,23.3627027 210.338573,23.3627027 C211.969795,23.3627027 213.42445,22.9248649 214.242491,22.0605405 C215.144766,21.1135135 215.254918,20.1632432 215.298655,19.6313514 L212.32455,19.6313514 C212.016772,20.8702703 211.198731,21.1816216 210.38393,21.1816216 C208.112854,21.1816216 208.112854,18.9275676 208.112854,18.1978378 L215.585374,18.1978378 C215.630731,17.2735135 215.674468,15.6389189 214.924462,14.1162162 C213.908795,12.0405405 212.011912,11.4243243 210.426047,11.4243243 L210.427667,11.4243243 Z M208.219766,16.1513514 C208.287801,14.8459459 208.883918,13.6540541 210.315895,13.6540541 C212.211158,13.6540541 212.256515,15.6405405 212.256515,16.1513514 L208.223006,16.1513514 L208.219766,16.1513514 Z M224.446135,11.4924324 C222.022789,11.4924324 221.141573,12.9275676 220.833795,13.4318919 L220.744702,11.7551351 L217.613468,11.7551351 C217.678263,12.527027 217.678263,13.74 217.678263,13.7854054 L217.678263,22.9443243 L220.961766,22.9443243 L220.961766,16.4091892 C220.961766,15.5497297 221.159392,15.0016216 221.358637,14.712973 C221.711772,14.1827027 222.350006,13.8502703 223.056275,13.8502703 C223.893754,13.8502703 224.400778,14.3156757 224.64376,14.7989189 C224.818708,15.1524324 224.818708,15.5497297 224.818708,16.0151351 L224.818708,22.9443243 L228.149187,22.9443243 L228.149187,16.9183784 C228.149187,14.8427027 228.081152,14.267027 227.841409,13.5827027 C227.55469,12.8140541 226.626497,11.4908108 224.444515,11.4908108 L224.446135,11.4924324 Z M237.296667,11.6464865 C236.724848,11.6464865 235.249135,11.6886486 234.144374,13.1464865 L234.144374,7.03297297 L230.88355,7.03297297 L230.88355,22.9459459 L234.037462,22.9459459 C234.102257,22.26 234.124936,21.7297297 234.145994,21.3778378 C235.160041,23.1210811 236.925713,23.1664865 237.499152,23.1664865 C239.724871,23.1664865 242.148216,21.7102703 242.148216,17.5394595 C242.148216,13.787027 240.009971,11.6464865 237.299906,11.6464865 L237.296667,11.6464865 Z M236.570959,21.0259459 C235.093626,21.0259459 234.014784,19.8097297 234.014784,17.2735135 C234.014784,16.5664865 234.014784,13.8308108 236.41707,13.8308108 C238.77724,13.8308108 238.820977,16.7659459 238.820977,17.6464865 C238.820977,18.2189189 238.820977,21.0243243 236.572579,21.0243243 L236.570959,21.0259459 Z M254.734708,19.1513514 L254.734708,11.7989189 L251.38155,11.7989189 L251.38155,17.4259459 C251.38155,19.3232432 251.38155,20.8913514 249.288661,20.8913514 C247.547287,20.8913514 247.547287,19.4156757 247.547287,18.4427027 L247.547287,11.8005405 L244.242725,11.8005405 L244.242725,18.7297297 C244.242725,19.2810811 244.242725,20.8248649 244.968433,21.7297297 C245.583988,22.5486486 246.821579,23.232973 248.318351,23.232973 C250.435538,23.232973 251.273018,21.9518919 251.603474,21.4654054 L251.713626,22.9459459 L254.888596,22.9459459 C254.847612,22.673779 254.817889,22.4000316 254.799503,22.1254054 C254.799503,21.8416216 254.778444,21.5578378 254.734708,19.1497297 L254.734708,19.1513514 Z M260.687778,13.8972973 L260.619743,11.7567568 L257.558164,11.7567568 C257.622959,12.3956757 257.710433,14.0108108 257.710433,14.5378378 L257.710433,22.9475676 L260.972877,22.9475676 L260.972877,17.4502703 C260.972877,16.0637838 261.170503,14.3627027 264.478304,14.6708108 L264.478304,11.7356757 C261.833035,11.6027027 261.105708,12.9518919 260.687778,13.8972973 L260.687778,13.8972973 Z M273.11876,11.8443243 L273.008608,13.32 C272.678152,12.8383784 271.928146,11.7340541 269.898433,11.7340541 C266.704023,11.7340541 265.139216,14.4259459 265.139216,17.2524324 C265.139216,19.9394595 266.637608,22.7237838 269.833637,22.7237838 C270.62738,22.7237838 271.793696,22.5681081 272.830421,21.1994595 C272.809363,22.9021622 272.809363,23.2978378 272.678152,23.8491892 C272.457848,24.8416216 271.620368,25.3086486 270.648439,25.3086486 C268.907064,25.3086486 268.753175,24.0924324 268.707819,23.7616216 L265.576585,23.7616216 C265.774211,27.1345946 268.881146,27.3340541 270.468632,27.3340541 C272.606877,27.3340541 276.02483,26.9383784 276.02483,22.8356757 L276.02483,14.6043243 C276.02483,13.4789189 276.089626,12.7281081 276.178719,11.8443243 L273.11714,11.8443243 L273.11876,11.8443243 Z M270.585263,20.4956757 C268.401661,20.4956757 268.401661,17.8037838 268.401661,17.2524324 C268.401661,14.8686486 269.417327,13.9167568 270.650058,13.9167568 C272.636035,13.9167568 272.877398,16.0572973 272.877398,17.3156757 C272.877398,17.8021622 272.877398,20.4940541 270.585263,20.4940541 L270.585263,20.4956757 Z" id="Shape" fill-rule="nonzero"></path>
                        <path d="M51.8135789,34.7351351 C48.5203567,34.7351351 46.9992865,37.5 46.9992865,40.2162162 C46.9992865,42.9372973 48.5219766,45.6972973 51.8135789,45.6972973 C55.1019415,45.6972973 56.6278713,42.9372973 56.6278713,40.2162162 C56.6278713,37.5 55.1051813,34.7351351 51.8135789,34.7351351 Z M51.8135789,44.5621622 C49.3238187,44.5621622 48.3373099,42.1297297 48.3373099,40.2162162 C48.3373099,38.2994595 49.3254386,35.8702703 51.8135789,35.8702703 C54.3033392,35.8702703 55.289848,38.2994595 55.289848,40.2162162 C55.289848,42.1297297 54.3017193,44.5621622 51.8135789,44.5621622 Z M65.414117,32.8427027 L65.414117,35.0481081 L61.0080351,35.0481081 L61.0080351,33.7297297 C60.9464795,32.2459459 60.9885965,31.4010811 62.6732749,31.4010811 C62.921117,31.4010811 63.1883977,31.4416216 63.4346199,31.4854054 L63.4346199,30.4962162 C63.0652865,30.4102703 62.6522164,30.2691892 62.2634444,30.2691892 C60.4929123,30.2691892 59.7736842,31.0718919 59.7736842,32.8427027 L59.7736842,35.0481081 L57.6953743,35.0481081 L57.6953743,36.18 L59.7736842,36.18 L59.7736842,45.3875676 L61.0080351,45.3875676 L61.0080351,36.1783784 L65.414117,36.1783784 L65.414117,45.3859459 L66.6484678,45.3859459 L66.6484678,36.1783784 L68.9940585,36.1783784 L68.9940585,35.0464865 L66.6484678,35.0464865 L66.6484678,33.7297297 C66.5869123,32.2459459 66.6274094,31.4010811 68.3169474,31.4010811 C68.5631696,31.4010811 68.8304503,31.4416216 69.0782924,31.4854054 L69.0782924,30.4962162 C68.7057193,30.4102703 68.294269,30.2691892 67.9038772,30.2691892 C66.1317251,30.2691892 65.4124971,31.0718919 65.4124971,32.8427027 L65.414117,32.8427027 Z M74.568076,34.7351351 C71.5016374,34.7351351 69.9611287,37.4156757 69.9611287,40.2162162 C69.9611287,43.0378378 71.3995848,45.6972973 74.4838421,45.6972973 C76.9736023,45.6972973 78.5173509,44.5654054 79.1539649,42.0908108 L77.8580585,42.0908108 C77.5502807,43.512973 76.3353684,44.5637838 74.8742339,44.5637838 C72.3439766,44.5637838 71.3347895,42.7102703 71.2942924,40.5064865 L79.2803158,40.5064865 C79.2803158,37.2713514 78.0232865,34.7383784 74.5664561,34.7383784 L74.568076,34.7351351 Z M74.5891345,35.8702703 C76.7273801,35.8702703 77.7965029,37.3751351 77.9422924,39.372973 L71.3396491,39.372973 C71.5016374,37.56 72.574,35.8702703 74.5891345,35.8702703 Z M86.5422515,34.7351351 C85.205848,34.7351351 84.0314327,35.3351351 83.3122047,36.612973 L83.2733275,36.5724324 L83.2117719,35.0481081 L81.9353041,35.0481081 C81.9758012,35.7502703 82.0373567,36.5724324 82.0373567,37.3767568 L82.0373567,45.3875676 L83.2717076,45.3875676 L83.2717076,39.4362162 C83.2717076,37.5794595 84.1950409,35.8718919 86.2360936,35.8718919 C87.9207719,35.8718919 88.9510175,36.9210811 88.9510175,38.712973 L88.9510175,45.3859459 L90.1869883,45.3859459 L90.1869883,38.9189189 C90.1869883,37.727027 89.9197076,34.7351351 86.5454912,34.7351351 L86.5422515,34.7351351 Z M98.1065965,34.7351351 C96.7264561,34.7351351 95.288,35.3951351 94.5687719,36.612973 L94.526655,36.5724324 L94.526655,30.5156757 L93.2906842,30.5156757 L93.2906842,43.0589189 C93.2906842,43.8648649 93.2307485,44.6854054 93.1902515,45.3875676 L94.4650994,45.3875676 L94.5298947,43.8632432 L94.5703918,43.7821622 C95.412731,45.0178378 96.6665205,45.6956757 98.1697719,45.6956757 C101.173035,45.6956757 102.34583,42.7718919 102.34583,40.1772973 C102.34583,37.4983784 101.174655,34.7351351 98.1082164,34.7351351 L98.1065965,34.7351351 Z M98.0418012,44.5621622 C95.3479357,44.5621622 94.526655,42.3567568 94.526655,40.0118919 C94.526655,37.9086486 95.4499883,35.8702703 97.8587544,35.8702703 C100.207585,35.8702703 101.007807,38.0918919 101.007807,40.0702703 C101.007807,41.9902703 100.40845,44.5621622 98.0434211,44.5621622 L98.0418012,44.5621622 Z M113.105094,35.0464865 L111.870743,35.0464865 L111.870743,40.9978378 C111.870743,42.8562162 110.947409,44.5654054 108.909596,44.5654054 C107.224918,44.5654054 106.194673,43.5113514 106.194673,41.7194595 L106.194673,35.0464865 L104.960322,35.0464865 L104.960322,41.5135135 C104.960322,42.7086486 105.227602,45.6972973 108.601819,45.6972973 C109.939842,45.6972973 111.112637,45.0972973 111.833485,43.8227027 L111.873982,43.8632432 L111.938778,45.3827027 L113.213626,45.3827027 C113.171509,44.6805405 113.108333,43.8616216 113.108333,43.0540541 L113.108333,35.0464865 L113.105094,35.0464865 Z M120.017135,34.7351351 C118.988509,34.7772973 118.061936,35.5216216 117.692602,36.5724324 L117.650485,36.5724324 L117.58569,35.0481081 L116.312462,35.0481081 C116.352959,35.7502703 116.435573,36.5724324 116.414515,37.3767568 L116.414515,45.3875676 L117.645626,45.3875676 L117.645626,39.167027 C117.689363,37.1886486 118.656433,35.8718919 120.486901,35.8718919 C120.736363,35.8718919 121.002023,35.9318919 121.251485,35.952973 L121.251485,34.7578378 C120.840035,34.7351351 120.430205,34.7140541 120.017135,34.7351351 L120.017135,34.7351351 Z M131.745088,35.0464865 L130.47024,35.0464865 L130.405444,36.5708108 L130.366567,36.6518919 C129.540427,35.4567568 128.471304,34.7351351 126.969673,34.7351351 C123.82224,34.7351351 122.56683,37.3297297 122.56683,40.1351351 C122.56683,42.972973 123.903234,45.3405405 127.01017,45.3405405 C128.346573,45.3405405 129.767211,44.6237838 130.363327,43.4075676 L130.403825,43.4075676 L130.403825,45.3421622 C130.363327,47.0772973 128.881135,48.2075676 127.27745,48.2075676 C125.960485,48.2075676 124.499351,47.7956757 124.353561,46.56 L123.015538,46.56 C123.015538,48.7037838 125.238018,49.3427027 127.110602,49.3427027 C128.077673,49.3427027 128.633292,49.2616216 129.456193,48.8691892 C131.740228,47.7989189 131.638175,45.6340541 131.638175,43.5745946 L131.638175,37.3751351 C131.641415,36.5740541 131.702971,35.7502703 131.743468,35.0481081 L131.745088,35.0464865 Z M127.13652,44.2135135 C124.873544,44.2135135 123.904854,41.927027 123.904854,40.032973 C123.904854,38.1389189 124.850865,35.8735135 127.096023,35.8735135 C129.315263,35.8735135 130.407064,38.0140541 130.407064,39.9924324 C130.407064,42.0081081 129.49993,44.2135135 127.134901,44.2135135 L127.13652,44.2135135 Z M135.757538,43.6151351 L137.403339,43.6151351 L137.403339,45.3875676 L135.757538,45.3875676 L135.757538,43.6151351 Z M149.665854,35.0464865 L148.429883,35.0464865 L148.429883,40.9978378 C148.429883,42.8562162 147.50655,44.5654054 145.465497,44.5654054 C143.780819,44.5654054 142.750573,43.5113514 142.750573,41.7194595 L142.750573,35.0464865 L141.516222,35.0464865 L141.516222,41.5135135 C141.516222,42.7086486 141.785123,45.6972973 145.160959,45.6972973 C146.495743,45.6972973 147.668538,45.0972973 148.389386,43.8227027 L148.429883,43.8632432 L148.491439,45.3827027 L149.767906,45.3827027 C149.727409,44.6805405 149.664234,43.8616216 149.664234,43.0540541 L149.664234,35.0464865 L149.665854,35.0464865 Z M157.485029,34.7351351 C156.147006,34.7351351 154.974211,35.3351351 154.253363,36.612973 L154.212865,36.5724324 L154.15131,35.0481081 L152.874842,35.0481081 C152.915339,35.7502703 152.976895,36.5724324 152.976895,37.3767568 L152.976895,45.3875676 L154.212865,45.3875676 L154.212865,39.4362162 C154.212865,37.5794595 155.139439,35.8718919 157.177251,35.8718919 C158.86193,35.8718919 159.890556,36.9210811 159.890556,38.712973 L159.890556,45.3859459 L161.126526,45.3859459 L161.126526,38.9189189 C161.126526,37.727027 160.857626,34.7351351 157.481789,34.7351351 L157.485029,34.7351351 Z M164.353333,30.5140541 L165.795029,30.5140541 L165.795029,32.0610811 L164.353333,32.0610811 L164.353333,30.5140541 Z M164.458626,35.0464865 L165.692977,35.0464865 L165.692977,45.3859459 L164.458626,45.3859459 L164.458626,35.0464865 Z M172.585579,43.6751351 L169.025076,35.0481081 L167.664374,35.0481081 L171.88417,45.3859459 L173.283749,45.3859459 L177.377193,35.0464865 L176.021351,35.0464865 L172.585579,43.6751351 Z M182.912333,34.7351351 C179.847515,34.7351351 178.303766,37.4156757 178.303766,40.2162162 C178.303766,43.0378378 179.745462,45.6972973 182.829719,45.6972973 C185.31948,45.6972973 186.863228,44.5654054 187.499842,42.0908108 L186.203936,42.0908108 C185.896158,43.512973 184.681246,44.5637838 183.218491,44.5637838 C180.688234,44.5637838 179.680667,42.7102703 179.63855,40.5064865 L187.621333,40.5064865 C187.621333,37.2713514 186.367544,34.7383784 182.910713,34.7383784 L182.912333,34.7351351 Z M182.935012,35.8702703 C185.073257,35.8702703 186.14562,37.3751351 186.28817,39.372973 L179.685526,39.372973 C179.847515,37.56 180.919877,35.8702703 182.936632,35.8702703 L182.935012,35.8702703 Z M193.980994,34.7351351 C192.952368,34.7772973 192.025795,35.5216216 191.656462,36.5724324 L191.615965,36.5724324 L191.554409,35.0481081 L190.277942,35.0481081 C190.318439,35.7502703 190.401053,36.5724324 190.379994,37.3767568 L190.379994,45.3875676 L191.615965,45.3875676 L191.615965,39.167027 C191.656462,37.1886486 192.623532,35.8718919 194.45562,35.8718919 C194.703462,35.8718919 194.969123,35.9318919 195.216965,35.952973 L195.216965,34.7578378 C194.805515,34.7351351 194.394064,34.7140541 193.982614,34.7351351 L193.980994,34.7351351 Z M203.03614,39.9081081 C200.236982,38.9189189 198.241287,39.0616216 198.241287,37.5405405 C198.241287,36.3243243 199.415702,35.8702703 200.567439,35.8702703 C201.843906,35.8702703 202.997263,36.3081081 203.118754,37.6005405 L204.458398,37.6005405 C204.29317,35.4145946 202.648988,34.7351351 200.693789,34.7351351 C198.88276,34.7351351 196.908123,35.4810811 196.908123,37.6216216 C196.908123,39.5351351 198.553924,40.0118919 200.180287,40.4010811 C201.826088,40.7740541 203.45245,41.0172973 203.45245,42.5027027 C203.45245,43.9427027 202.07555,44.5621622 200.756965,44.5621622 C199.359006,44.5621622 197.999924,44.1081081 197.897871,42.5675676 L196.559848,42.5675676 C196.603585,44.8508108 198.660836,45.6972973 200.450807,45.6972973 C202.632789,45.6972973 204.792094,44.6432432 204.792094,42.3178378 C204.787234,41.2037838 204.108503,40.2810811 203.03776,39.9064865 L203.03614,39.9081081 Z M207.47948,30.5140541 L208.921175,30.5140541 L208.921175,32.0610811 L207.47948,32.0610811 L207.47948,30.5140541 Z M207.583152,35.0464865 L208.817503,35.0464865 L208.817503,45.3859459 L207.581532,45.3859459 L207.583152,35.0464865 Z M214.268409,43.0994595 L214.268409,36.1783784 L216.61238,36.1783784 L216.61238,35.0464865 L214.270029,35.0464865 L214.270029,32.3091892 L213.034058,32.8443243 L213.034058,35.0464865 L210.980047,35.0464865 L210.980047,36.1816216 L213.037298,36.1816216 L213.037298,42.6275676 C213.037298,44.0254054 212.891509,45.6972973 215.506,45.6972973 C215.91745,45.6972973 216.369398,45.6113514 216.759789,45.5108108 L216.759789,44.4405405 C216.411498,44.5346207 216.051238,44.5766961 215.690667,44.5654054 C214.744655,44.5654054 214.248971,44.0464865 214.271649,43.0994595 L214.268409,43.0994595 Z M226.385135,35.0464865 L222.929924,43.6962162 L219.455275,35.0464865 L217.952023,35.0464865 L222.228515,45.3859459 L220.668567,49.3427027 L222.026029,49.3427027 L227.728018,35.0464865 L226.385135,35.0464865 Z" id="Shape" fill-rule="nonzero"></path>
                        <path d="M15.1264678,16.272973 L17.8608304,17.6951351 L17.8608304,40.7221622 C20.817117,39.5545946 24.3727602,35.5751351 24.3727602,28.0702703 C24.3695205,17.1340541 19.0336257,16.272973 15.1264678,16.272973 Z" id="Path" fill-rule="nonzero"></path>
                    </g>
                </g>
            </g>
        </g>
    </g>
</svg>
