<?xml version="1.0" encoding="utf-8"?>
<!-- Generator: Adobe Illustrator 24.3.0, SVG Export Plug-In . SVG Version: 6.00 Build 0)  -->
<svg version="1.1" id="Ebene_1" xmlns="http://www.w3.org/2000/svg" xmlns:xlink="http://www.w3.org/1999/xlink" x="0px" y="0px"
	 viewBox="10 115 595.28 350" xml:space="preserve">
<style type="text/css">
	.st0{fill:#202020;stroke:#202020;stroke-width:6;stroke-miterlimit:10;}
	.st1{fill:#202020;}
	.st2{fill:#44B071;}
	.st3{fill:#474747;}
	.st4{fill:#2B8954;}
</style>
<path class="st0" d="M207.32,336c-1.61,8.08-2.67,16.26-2.86,24.6c-0.03,1.44-0.52,2.24-1.75,2.96
	c-20.24,11.81-40.46,23.68-60.68,35.52c-2.44,1.43-3.29,0.65-3.08-2.66c0.26-4.04,0.14-8.1-0.15-12.14
	c-0.22-3.1-0.57-6.29-1.59-9.18c-3.71-10.49-13.92-17.65-25.08-17.93c-4.79-0.12-9.59-0.01-14.39-0.07
	c-7.06-0.09-11.89-4.33-12.84-11.32c-0.35-2.61-0.49-5.25-0.72-7.88c-0.67-7.76-1.34-15.53-1.98-23.29
	c-0.18-2.23-1.27-3.59-3.41-4.34c-3.39-1.19-6.73-2.54-10.08-3.85c-3.85-1.5-4.64-3.62-2.73-7.32c0.05-0.11,0.12-0.21,0.18-0.31
	c3.91-7.49,7.65-15.08,11.78-22.45c3.3-5.9,3.99-11.88,2.32-18.37c-0.99-3.87-2.08-7.88-2.02-11.82c0.17-13.04,4.78-24.6,13.13-34.6
	c5.39-6.46,11.61-11.55,18.64-15.2v-8.18c-8.41,3.73-15.92,9.2-22.46,16.35c-11.1,12.14-16.91,26.47-16.98,42.93
	c-0.01,3.58,1.24,7.18,1.93,10.76c0.23,1.22,0.53,2.42,0.8,3.63c0.89,3.97,0.01,7.64-2.32,11.24c-3.78,5.84-7.09,11.96-9.67,18.42
	c-1.06,2.65-2.92,5.28-3.66,8.15c-1.29,5.05,1.13,10.23,5.85,12.49c3.07,1.47,6.29,2.63,9.5,3.81c1.24,0.46,1.76,1.09,1.86,2.43
	c0.72,9.02,1.67,18.03,2.29,27.06c0.77,11.22,9.53,18.9,20.73,18.98c4.2,0.03,8.39-0.07,12.59,0.03c8.41,0.2,14.83,3.8,18.83,11.35
	c1.55,2.93,1.97,6.14,2.01,9.4c0.06,4.79-0.14,9.61,0.24,14.37c0.44,5.71,6.74,9.25,12.04,6.96c2.08-0.9,4.03-2.11,5.99-3.26
	c19.91-11.65,39.81-23.34,59.74-34.98c1.7-0.99,2.72-2.23,2.72-4.28c0.01-9.52,1.24-18.82,3.13-28H207.32z"/>
<g>
	<g>
		<path class="st1" d="M293.15,312.67l-3.43-11.96h-16.26l-3.64,11.96H254.7l18.74-60.69h19.7l19.04,60.69H293.15z M276.63,287.46
			h9.82l-4.91-17.61L276.63,287.46z"/>
		<path class="st1" d="M383.74,251.98v60.69h-17.3v-43.4l-11.23,43.4h-11.83l-11.67-43.4v43.4h-13.96v-60.69h24.34l8.8,32.23
			l8.4-32.23H383.74z"/>
		<path class="st1" d="M423.58,296.44l16.54,1.11c-0.98,4.45-3.48,8.23-7.49,11.36c-4.02,3.13-9.45,4.69-16.29,4.69
			c-7.62,0-13.69-2.2-18.23-6.6s-6.8-9.86-6.8-16.38c0-6.76,2.24-12.46,6.71-17.12c4.48-4.65,10.45-6.98,17.92-6.98
			c7.23,0,13.08,2.19,17.54,6.58c4.46,4.39,6.69,10.36,6.69,17.92c0,0.62-0.01,1.48-0.04,2.58h-30.28c0.06,2.85,0.56,4.96,1.51,6.34
			c0.95,1.38,2.76,2.07,5.42,2.07C420.63,302,422.89,300.14,423.58,296.44z M422.38,284.7c-0.03-3.05-0.64-5.11-1.84-6.16
			c-1.2-1.05-2.68-1.58-4.45-1.58c-4.19,0-6.29,2.58-6.29,7.74H422.38z"/>
		<path class="st1" d="M490.27,297.77v14.89h-42.55v-60.69h18.63v45.8H490.27z"/>
		<path class="st1" d="M513.88,250.06v14.05h-17.74v-14.05H513.88z M513.88,267.45v45.22h-17.74v-45.22H513.88z"/>
		<path class="st1" d="M557.3,312.67l-3.43-11.96h-16.26l-3.64,11.96h-15.12l18.74-60.69h19.7l19.04,60.69H557.3z M540.78,287.46
			h9.82l-4.91-17.61L540.78,287.46z"/>
	</g>
</g>
<polygon points="215.27,254.71 195.42,257.08 195.37,232.84 209.6,231.14 "/>
<polygon class="st2" points="215.27,254.71 195.42,257.08 195.37,232.84 209.6,231.14 "/>
<polygon class="st2" points="195.13,257.24 182.77,272.96 165.6,255.85 174.46,244.58 "/>
<polygon class="st2" points="182.68,273.27 185.05,293.13 160.82,293.17 159.12,278.94 "/>
<polygon class="st2" points="185.21,293.41 200.93,305.77 183.83,322.94 172.56,314.08 "/>
<polygon class="st2" points="201.24,305.86 221.1,303.49 221.14,327.72 206.91,329.42 "/>
<polygon class="st2" points="233.84,287.3 231.46,267.44 255.7,267.4 257.4,281.63 "/>
<polygon class="st2" points="231.31,267.16 215.59,254.79 232.69,237.63 243.96,246.49 "/>
<path class="st1" d="M238.53,292.38c1.96-4.9,2.76-10.35,2.09-15.96c-2.14-17.88-18.36-30.64-36.24-28.5
	c-17.88,2.14-30.64,18.36-28.5,36.24c2.14,17.88,18.36,30.64,36.24,28.5c5.61-0.67,10.72-2.73,15.02-5.79l14.91,9.12l8.86-11.26
	L238.53,292.38z M210.33,297.63c-9.58,1.14-18.27-5.69-19.42-15.27c-1.14-9.58,5.69-18.27,15.27-19.42
	c9.58-1.14,18.27,5.69,19.42,15.27C226.75,287.79,219.91,296.48,210.33,297.63z"/>
<polygon class="st3" points="143.66,186.53 138.25,205.78 115.84,196.55 119.72,182.75 "/>
<path class="st4" d="M209.49,222.84l3.88-13.8l-16.16-6.66c-0.03-2.33-0.3-4.64-0.82-6.87l14.13-10.28l-7.02-12.5l-16.14,6.72
	c-1.64-1.6-3.46-3.03-5.44-4.27l2.73-17.27l-13.8-3.88l-6.66,16.16c-2.33,0.03-4.64,0.3-6.87,0.82l-10.28-14.13l-12.5,7.02
	l6.72,16.14c-1.6,1.64-3.03,3.46-4.27,5.44l-17.27-2.73l-3.88,13.8l16.16,6.66c0.03,2.33,0.3,4.64,0.82,6.87l-14.13,10.28l7.02,12.5
	l16.14-6.72c1.64,1.6,3.46,3.03,5.44,4.27l-2.73,17.27l13.8,3.88l6.66-16.16c2.33-0.03,4.64-0.3,6.87-0.82l10.28,14.13l12.5-7.02
	l-6.72-16.14c1.6-1.64,3.03-3.46,4.27-5.44L209.49,222.84z M181.42,207.52c-2.61,9.29-12.25,14.7-21.54,12.1
	c-9.29-2.61-14.7-12.25-12.1-21.54c2.61-9.29,12.25-14.7,21.54-12.1C178.62,188.58,184.03,198.23,181.42,207.52z"/>
</svg>
